<?xml version="1.0" encoding="UTF-8" standalone="no"?>
<!DOCTYPE svg PUBLIC "-//W3C//DTD SVG 1.1//EN" "http://www.w3.org/Graphics/SVG/1.1/DTD/svg11.dtd">
<svg version="1.1" xmlns="http://www.w3.org/2000/svg" xmlns:xlink="http://www.w3.org/1999/xlink" preserveAspectRatio="xMidYMid meet" viewBox="0 0 640 640" width="640" height="640"><defs><path d="M153.98 394.83C145.29 387.22 136.77 377.07 128.42 364.38C123.96 357.6 120.45 350.26 117.97 342.54C112.6 325.85 108.96 309.05 107.05 292.13C104.68 271.2 104.83 250.76 107.5 230.8C113.06 200.23 123.65 172.26 139.27 146.88C154.9 121.5 175.56 98.72 201.25 78.52C222.6 64.89 245.54 55.8 270.06 51.25C294.59 46.7 320.71 46.7 348.41 51.25C378.09 59.31 403.59 71.39 424.91 87.49C446.23 103.59 463.38 123.71 476.34 147.84L489.38 179.19C496.53 203.88 501.86 220.57 505.36 229.26C513.03 248.3 518.48 259.22 521.7 262.05C543.47 280.1 557.07 291.38 562.51 295.89C566.49 299.2 567.13 305.06 563.96 309.14C559.2 315.27 548.84 328.6 543.64 335.29C541.77 337.71 542.32 341.2 544.85 342.91C545.96 343.66 547.05 344.78 548.12 346.28C549.53 348.23 550.95 350.53 552.39 353.15C554.09 356.26 554.25 359.99 552.81 363.23C550.05 369.43 548.49 375.73 548.12 382.11C547.82 387.45 547.98 390.99 548.61 392.71C549.88 396.17 550.16 399.92 549.42 403.52C548.81 406.47 548.44 408.26 547.91 410.83C546.89 415.78 546.37 420.82 546.38 425.88C546.39 435.41 545.81 441.94 544.65 445.49C543.29 449.66 541.68 453.39 539.84 456.7C539.12 457.97 538.13 459.08 536.94 459.93C531.2 464.02 538.75 458.64 538.75 458.64C518.64 472.98 495.68 482.84 471.44 487.56C465.94 488.62 452.21 491.3 430.23 495.57C406.44 500.63 384.28 512.78 363.73 532C343.18 551.22 324.25 577.53 306.93 610.91C309.79 586.08 317.61 561.4 330.39 536.87C343.18 512.34 360.92 487.97 383.64 463.75C419.67 430.28 445.69 397.3 461.69 364.82C477.69 332.34 485.03 296.86 483.69 258.38C479.98 220.88 467.89 186.27 447.44 154.55C426.99 122.82 396.82 97.48 356.93 78.52C336.73 71.75 316.16 69.6 295.24 72.08C263.85 75.79 250.55 83.52 231.39 93.36C196.54 111.26 168.69 142.11 147.84 185.91C143.14 196.58 140.03 204.44 138.53 209.49C125.06 254.65 125.62 321.26 152.35 357.27C160.69 368.52 183.84 395.89 197.21 403.04C203.07 406.18 204.49 408.22 201.68 411.22C200.61 412.36 198.42 413.43 195.13 414.43C191.73 415.46 188.09 415.32 184.78 414.03C174.12 409.86 163.85 403.46 153.98 394.83Z" id="h9Jq3kI1F"></path><linearGradient id="gradienta1ZAnj6YGU" gradientUnits="userSpaceOnUse" x1="335.67" y1="47.84" x2="335.67" y2="610.91"><stop style="stop-color: #c0f85f;stop-opacity: 1" offset="0%"></stop><stop style="stop-color: #719549;stop-opacity: 1" offset="100%"></stop></linearGradient><path d="M158.08 266.05C159.86 235.27 162.98 222.93 172.1 196.77C182.75 166.23 202.14 141.61 230.28 122.93C235.02 119.78 240.09 117.17 245.41 115.14C286.09 99.61 321.99 97.97 353.13 110.2C385.51 122.92 413.46 150.7 436.96 193.52C438.11 195.62 437.19 198.26 434.98 199.2C390.92 217.83 346.73 237.04 302.42 256.84C259.4 276.05 216.25 295.82 172.98 316.14C168.76 318.12 163.77 315.88 162.43 311.42C158.53 298.35 157.08 283.23 158.08 266.05Z" id="aqViQmVpK"></path><path d="M162.29 282.26C162.19 262.5 162.8 248.1 164.13 239.06C166.32 224.19 170.17 210.32 175.69 197.48C187.12 170.85 204.8 148.49 228.73 130.42C238.64 122.93 249.98 117.54 262.05 114.58C299.28 105.46 330.42 106.15 355.46 116.66C384.72 128.95 409.82 153.71 430.78 190.93C431.58 192.37 430.96 194.19 429.44 194.83C385.86 213.13 342.33 232.15 298.85 251.87C256.01 271.31 213.21 291.45 170.47 312.27C168.18 313.39 165.49 311.9 165.22 309.37C164.83 305.76 163.85 296.72 162.29 282.26Z" id="b1ZCQjyiP"></path><path d="M400.37 163.91C394.64 157.62 388.84 151.88 382.99 146.71C381.22 145.14 378.5 145.35 376.99 147.18C361.12 166.42 316.99 219.91 301.3 238.93C300.41 240.01 301.6 241.54 302.87 240.96C326.35 230.1 392.78 199.4 416.56 188.4C418.43 187.54 418.96 185.14 417.63 183.57C411.97 176.87 406.22 170.32 400.37 163.91Z" id="c3JNSPtOm"></path><path d="M340.35 123.58C329.92 120.24 317.33 118.68 302.56 118.9C299.23 118.95 296.54 121.62 296.46 124.95C295.95 148.37 294.49 214.44 293.97 238.3C293.94 239.45 295.41 239.94 296.09 239.02C310.86 218.92 353.03 161.55 367.82 141.44C369 139.83 368.65 137.56 367.03 136.39C359.98 131.29 351.08 127.02 340.35 123.58Z" id="affYPpuIe"></path><path d="M249.11 129.79C241.66 133.37 235.36 136.93 230.2 140.48C227.29 142.48 226.51 146.44 228.45 149.39C240.82 168.23 275.72 221.38 288.41 240.7C288.98 241.57 290.32 241.17 290.33 240.14C290.53 216.21 291.1 148.69 291.29 124.97C291.31 122.59 289.26 120.73 286.89 120.97C270.33 122.71 257.73 125.65 249.11 129.79Z" id="a2DDrb5jQw"></path><path d="M194.93 179.39C200.74 169.7 207.6 161.15 215.52 153.76C216.91 152.45 219.14 152.67 220.26 154.21C233.63 172.65 271.76 225.25 285.17 243.73C285.82 244.63 284.99 245.84 283.92 245.56C263.04 240.1 204.07 224.66 183.31 219.23C181.22 218.68 179.98 216.53 180.55 214.45C184.31 200.83 189.1 189.14 194.93 179.39Z" id="c3Xpmqosph"></path><path d="M174.35 292.86C172.56 274.03 172.95 255.05 175.51 236.3C175.62 235.51 174.74 241.94 175.51 236.3C175.81 234.12 177.84 232.61 180.01 232.94C201.15 236.21 259.95 245.29 280.93 248.53C282.37 248.75 282.65 250.7 281.33 251.32C260.1 261.32 199.84 289.72 178.38 299.83C176.81 300.57 174.98 299.53 174.82 297.8C174.18 291.14 174.51 294.56 174.35 292.86Z" id="aSDQACzOt"></path><path d="M173.01 215.49L173.25 302.08L392.18 199.25C367.84 182.4 339.22 172.45 306.34 169.42C273.45 166.39 235.32 170.27 191.96 181.07L173.01 215.49Z" id="b8EQWCTuA"></path></defs><g><g><g><use xlink:href="#h9Jq3kI1F" opacity="1" fill="url(#gradienta1ZAnj6YGU)"></use><g><use xlink:href="#h9Jq3kI1F" opacity="1" fill-opacity="0" stroke="#000000" stroke-width="1" stroke-opacity="0.06"></use></g><g></g></g><g><use xlink:href="#aqViQmVpK" opacity="1" fill="#a4d73d" fill-opacity="1"></use><g><use xlink:href="#aqViQmVpK" opacity="1" fill-opacity="0" stroke="#ffffff" stroke-width="1" stroke-opacity="0.22"></use></g></g><g><use xlink:href="#b1ZCQjyiP" opacity="1" fill="#ffffff" fill-opacity="1"></use><g><use xlink:href="#b1ZCQjyiP" opacity="1" fill-opacity="0" stroke="#ffffff" stroke-width="0" stroke-opacity="1"></use></g></g><g><use xlink:href="#c3JNSPtOm" opacity="1" fill="#7bbf25" fill-opacity="1"></use><g><use xlink:href="#c3JNSPtOm" opacity="1" fill-opacity="0" stroke="#ff0000" stroke-width="1" stroke-opacity="0"></use></g></g><g><use xlink:href="#affYPpuIe" opacity="1" fill="#7bbf25" fill-opacity="1"></use><g><use xlink:href="#affYPpuIe" opacity="1" fill-opacity="0" stroke="#ff0000" stroke-width="1" stroke-opacity="0"></use></g></g><g><use xlink:href="#a2DDrb5jQw" opacity="1" fill="#7bbf25" fill-opacity="1"></use><g><use xlink:href="#a2DDrb5jQw" opacity="1" fill-opacity="0" stroke="#ff0000" stroke-width="1" stroke-opacity="0"></use></g></g><g><use xlink:href="#c3Xpmqosph" opacity="1" fill="#86cc2e" fill-opacity="1"></use><g><use xlink:href="#c3Xpmqosph" opacity="1" fill-opacity="0" stroke="#ff0000" stroke-width="1" stroke-opacity="0"></use></g></g><g><use xlink:href="#aSDQACzOt" opacity="1" fill="#7cc322" fill-opacity="1"></use><g><use xlink:href="#aSDQACzOt" opacity="1" fill-opacity="0" stroke="#ff0000" stroke-width="1" stroke-opacity="0"></use></g></g><g><use xlink:href="#b8EQWCTuA" opacity="1" fill="#ffffff" fill-opacity="0.29"></use><g><use xlink:href="#b8EQWCTuA" opacity="1" fill-opacity="0" stroke="#ffffff" stroke-width="1" stroke-opacity="0.33"></use></g></g></g></g></svg>